<svg xmlns="http://www.w3.org/2000/svg" viewBox="0 0 16 16" id="Debian--Streamline-Font-Awesome" height="16" width="16">
  <desc>
    Debian Streamline Icon: https://streamlinehq.com
  </desc>
<!--! Font Awesome Free 6.5.2 by @fontawesome - https://fontawesome.com License - https://fontawesome.com/license/free (Icons: CC BY 4.0, Fonts: SIL OFL 1.1, Code: MIT License) Copyright 2024 Fonticons, Inc.-->
  <path d="M12.718824999999999 7.6279892857142855c0.0926142857142857 -0.23462857142857144 0.16979642857142854 -0.4322107142857143 0.16053571428571428 -0.7532821428571428l-0.13275357142857142 0.27785c0.13583928571428572 -0.40751428571428566 0.1234892857142857 -0.8366357142857141 0.11114285714285714 -1.2472357142857142 -0.006175 -0.18523571428571428 -0.009264285714285714 -0.36429285714285714 0 -0.5371785714285714l-0.05557142857142857 -0.015435714285714284c-0.04630714285714285 -1.395425 -1.2534107142857143 -2.874203571428571 -2.324678571428571 -3.3774214285714286 -0.9261642857142857 -0.4260357142857143 -2.3493749999999998 -0.5001285714285714 -3.0038678571428568 -0.17905714285714286 0.04013571428571428 -0.03396071428571428 0.1296642857142857 -0.06174642857142857 0.20993214285714284 -0.08335714285714285l0.009260714285714284 -0.003085714285714286c0.10187857142857142 -0.030871428571428567 0.18523571428571428 -0.05248214285714285 0.1234892857142857 -0.08952857142857143 -0.5927464285714286 0.05865714285714286 -0.7687178571428571 0.16979642857142854 -0.960125 0.2901964285714286h-0.003085714285714286c-0.1420142857142857 0.08953214285714285 -0.29328571428571426 0.18523571428571428 -0.6267071428571428 0.2685892857142857 -0.10805357142857143 0.10496785714285713 0.05248214285714285 0.06174642857142857 0.17905714285714286 0.027785714285714285s0.22228214285714287 -0.05865714285714286 -0.003085714285714286 0.07409285714285714c-0.10805357142857143 0.030871428571428567 -0.20375714285714283 0.04013571428571428 -0.29637142857142856 0.04939642857142857h-0.0030892857142857137c-0.25623928571428567 0.02469642857142857 -0.48778214285714283 0.04939642857142857 -0.947775 0.5248285714285714 0.02469642857142857 0.04013214285714285 0.1049642857142857 -0.006175 0.16362142857142858 -0.04013571428571428l0.003085714285714286 -0.003085714285714286c0.07100714285714285 -0.04322142857142857 0.10496785714285713 -0.06174642857142857 -0.05248214285714285 0.13583571428571428 -0.5896571428571429 -0.07409285714285714 -1.861592857142857 1.349117857142857 -2.1332714285714283 1.8214607142857142l0.1420142857142857 0.0247c-0.09879285714285714 0.2469785714285714 -0.20993214285714284 0.45690714285714285 -0.30872142857142854 0.6421428571428571 -0.13275357142857142 0.2500642857142857 -0.24389285714285713 0.45999642857142853 -0.2685892857142857 0.6575785714285713 -0.009260714285714284 0.15744642857142857 -0.030871428571428567 0.3395928571428571 -0.05248214285714285 0.5340892857142857l-0.009264285714285714 0.0926142857142857 -0.003085714285714286 0.018525c-0.09261785714285714 0.8428107142857143 -0.20684285714285713 1.8770285714285715 0.12040357142857143 2.2536714285714283l-0.04013571428571428 0.40133928571428573c0.018525 0.03704642857142857 0.03396071428571428 0.07100714285714285 0.04939642857142857 0.10805357142857143 0.006175 0.01234642857142857 0.01235 0.02469642857142857 0.015435714285714284 0.03395714285714285 0.030871428571428567 0.06483214285714285 0.061742857142857134 0.1296642857142857 0.10187857142857142 0.19140714285714283l-0.09261785714285714 0.006175c0.21610714285714286 0.6822785714285714 0.3334214285714286 0.6946249999999999 0.4661714285714285 0.706975 0.13583571428571428 0.01235 0.2871107142857143 0.027785714285714285 0.5773107142857142 0.7471071428571429 -0.08335714285714285 -0.027785714285714285 -0.16979642857142854 -0.05865714285714286 -0.2902 -0.2222785714285714 -0.015435714285714284 0.126575 0.17906071428571427 0.503217857142857 0.404425 0.7965035714285713l-0.09570357142857142 0.1111392857142857c0.06483214285714285 0.114225 0.14818928571428572 0.19140714285714283 0.23462857142857144 0.271675 0.030875 0.027785714285714285 0.06483214285714285 0.05865714285714286 0.09570357142857142 0.08952857142857143 -0.3673785714285714 -0.20066785714285712 0.09879285714285714 0.42294999999999994 0.3673821428571428 0.7779821428571428 0.02469642857142857 0.03395714285714285 0.04630714285714285 0.061742857142857134 0.06791785714285714 0.08952857142857143 0.04322142857142857 0.05865714285714286 0.07718214285714285 0.1049642857142857 0.08952857142857143 0.126575l0.07409285714285714 -0.1296642857142857c-0.009260714285714284 0.18832142857142856 0.13275 0.429125 0.4044285714285714 0.7625464285714285l0.2253642857142857 -0.009264285714285714c0.09261785714285714 0.18523571428571428 0.4322107142857143 0.5155678571428571 0.6390571428571428 0.5310035714285714l-0.13583928571428572 0.17905714285714286c0.2500642857142857 0.08026785714285714 0.3179857142857143 0.13275357142857142 0.3920785714285714 0.19141071428571427 0.08026785714285714 0.06483214285714285 0.1667107142857143 0.13275 0.4970428571428571 0.2500642857142857l-0.1296642857142857 -0.22845357142857142c0.10805357142857143 0.0926142857142857 0.19140714285714283 0.18214642857142857 0.271675 0.26858571428571426l0.0030892857142857137 0.0030892857142857137c0.16053571428571428 0.17288214285714285 0.30563214285714285 0.32724285714285717 0.6081821428571428 0.4723428571428571 0.33033214285714285 0.11422857142857142 0.5124785714285713 0.1451 0.7008 0.17906071428571427 0.009260714285714284 0 0.018521428571428567 0.003085714285714286 0.027782142857142856 0.003085714285714286 0.1667107142857143 0.0247 0.34577142857142856 0.05557142857142857 0.6421428571428571 0.138925 -0.03395714285714285 -0.003085714285714286 -0.06791785714285714 -0.003085714285714286 -0.10187857142857142 -0.003085714285714286 -0.07100357142857143 -0.0030892857142857137 -0.1451 -0.0030892857142857137 -0.21610357142857142 -0.0030892857142857137 -0.44456071428571425 -0.006171428571428572 -0.9014714285714285 -0.01234642857142857 -1.318242857142857 -0.16053571428571428C4.309232142857143 14.879875 1.5832142857142855 11.382053571428571 1.7838821428571427 7.782349999999999c-0.018521428571428567 -0.30563214285714285 -0.009260714285714284 -0.6452285714285715 0 -0.947775 0.01235 -0.416775 0.021610714285714285 -0.7656321428571428 -0.04939285714285714 -0.8736857142857143l0.030871428571428567 -0.09570357142857142c0.16362142857142858 -0.537175 0.3612035714285714 -1.179317857142857 0.7347571428571428 -1.938775l-0.003085714285714286 -0.006175v-0.003085714285714286c0.01235 0.01235 0.1049642857142857 0.1049642857142857 0.271675 -0.17906071428571427 0.02469642857142857 -0.05556785714285714 0.04939642857142857 -0.114225 0.07409285714285714 -0.17288214285714285 0.015435714285714284 -0.03396071428571428 0.027785714285714285 -0.06791785714285714 0.04322142857142857 -0.09879285714285714 0.07718214285714285 -0.18831785714285712 0.15744999999999998 -0.3797285714285714 0.2593285714285714 -0.5526107142857143l0.08026785714285714 -0.018525c0.05248214285714285 -0.3118071428571429 0.524825 -0.7347571428571428 0.9199892857142856 -1.0867l0.03396071428571428 -0.030875c0.17597142857142856 -0.15744642857142857 0.33033214285714285 -0.29945714285714287 0.41986071428571425 -0.404425l0.021610714285714285 0.13583928571428572c0.5248285714285714 -0.49086785714285713 1.3769035714285713 -0.8489857142857142 2.025217857142857 -1.12375l0.015435714285714284 -0.006175c0.14818928571428572 -0.061742857142857134 0.28711428571428566 -0.1204 0.41059999999999997 -0.17597142857142856 -0.1049642857142857 0.11731428571428572 0.06792142857142856 0.08335714285714285 0.30872499999999997 0.030871428571428567 0.14818571428571428 -0.030871428571428567 0.32107142857142856 -0.06483214285714285 0.4723428571428571 -0.07409285714285714l-0.1204 0.06483214285714285c-0.08335714285714285 0.04322142857142857 -0.1667107142857143 0.08644285714285714 -0.2469785714285714 0.1420142857142857 0.2500642857142857 -0.06174642857142857 0.3612035714285714 -0.04322142857142857 0.48469285714285715 -0.0247h0.009264285714285714c0.10805 0.018525 0.2253642857142857 0.03704642857142857 0.4507321428571428 0.006175 -0.17288214285714285 0.02469642857142857 -0.3797285714285714 0.09261785714285714 -0.3457678571428571 0.11731428571428572 0.2438892857142857 0.027785714285714285 0.3951642857142857 -0.003085714285714286 0.531 -0.030871428571428567h0.006175c0.16979642857142854 -0.03396071428571428 0.3179857142857143 -0.06174642857142857 0.5958357142857142 0.027785714285714285l-0.030871428571428567 -0.14818928571428572c0.2253642857142857 0.08026785714285714 0.39207499999999995 0.13275 0.5402607142857142 0.17906071428571427l0.015439285714285714 0.003085714285714286c0.30872142857142854 0.09261785714285714 0.54335 0.163625 1.0558285714285713 0.43529999999999996 0.0987892857142857 0.006171428571428572 0.16362142857142858 -0.015435714285714284 0.22845357142857142 -0.03704642857142857h0.0030892857142857137c0.1111392857142857 -0.03396071428571428 0.21610357142857142 -0.06483214285714285 0.4692571428571429 0.03704642857142857 0.009260714285714284 0.015435714285714284 0.015435714285714284 0.030871428571428567 0.021610714285714285 0.04322142857142857 0.003085714285714286 0.006171428571428572 0.006175 0.015435714285714284 0.009260714285714284 0.021610714285714285v0.003085714285714286c0.030871428571428567 0.08026785714285714 0.05557142857142857 0.1420107142857143 0.45073571428571424 0.37355357142857143 0.05248214285714285 -0.021610714285714285 -0.08335714285714285 -0.1451 -0.19758214285714285 -0.2531535714285714l-0.0030892857142857137 -0.003085714285714286c-0.006175 -0.003085714285714286 -0.009260714285714284 -0.009260714285714284 -0.015435714285714284 -0.01235 0.9940857142857142 0.5340892857142857 2.0777 1.6701892857142857 2.4080321428571425 2.8865535714285713 -0.18523214285714285 -0.3426821428571429 -0.16053571428571428 -0.16979642857142854 -0.13275 0.015435714285714284 0.018525 0.1234892857142857 0.03704642857142857 0.2500642857142857 -0.006175 0.23154285714285713 0.138925 0.37355357142857143 0.2500678571428571 0.7563678571428571 0.32107142857142856 1.1546214285714285l-0.02469642857142857 -0.08952857142857143 -0.003085714285714286 -0.009264285714285714c-0.10187857142857142 -0.3673785714285714 -0.296375 -1.058917857142857 -0.6143571428571429 -1.5219999999999998 -0.01235 0.13275 -0.08644285714285714 0.12040357142857143 -0.16053571428571428 0.10805357142857143h-0.0030892857142857137c-0.10187857142857142 -0.018525 -0.19140714285714283 -0.03396071428571428 -0.05865714285714286 0.3889892857142857 0.08026785714285714 0.11731428571428572 0.09570357142857142 0.07409285714285714 0.10805357142857143 0.03396071428571428 0.015435714285714284 -0.04631071428571428 0.027785714285714285 -0.08335714285714285 0.1451 0.16053571428571428 0.003085714285714286 0.126575 0.030871428571428567 0.25315 0.06483214285714285 0.39207499999999995l0.003085714285714286 0.018525c0.003085714285714286 0.009260714285714284 0.003085714285714286 0.015435714285714284 0.006175 0.02469642857142857l0.003085714285714286 0.018525c0.018525 0.08026785714285714 0.04013571428571428 0.1667107142857143 0.05557142857142857 0.25932499999999997 -0.03396071428571428 -0.006175 -0.07100714285714285 -0.06791785714285714 -0.10496785714285713 -0.12966071428571427 -0.04321785714285714 -0.07409642857142856 -0.08643928571428572 -0.1451 -0.114225 -0.09879285714285714 0.07409285714285714 0.3550321428571428 0.20066785714285712 0.5371785714285714 0.2469785714285714 0.5649607142857143 -0.009264285714285714 0.018525 -0.018525 0.021610714285714285 -0.03396071428571428 0.021610714285714285 -0.02469642857142857 0 -0.05557142857142857 0.0030892857142857137 -0.05865714285714286 0.163625 0.021610714285714285 0.4229464285714285 0.10187857142857142 0.38589999999999997 0.16362142857142858 0.35811785714285715 0.018525 -0.009264285714285714 0.03705 -0.018525 0.05248571428571428 -0.01235 -0.018525 0.07718214285714285 -0.04939642857142857 0.15744642857142857 -0.08335714285714285 0.2438892857142857 -0.08644285714285714 0.21919285714285713 -0.18523214285714285 0.4754321428571428 -0.1049642857142857 0.8057642857142856 -0.0247 -0.0926142857142857 -0.06174642857142857 -0.18523214285714285 -0.09570357142857142 -0.27476071428571425l-0.0030892857142857137 -0.01235 -0.018521428571428567 -0.04630714285714285c-0.009260714285714284 -0.0247 -0.018525 -0.04939642857142857 -0.027785714285714285 -0.07100714285714285 -0.018521428571428567 0.13583928571428572 -0.009260714285714284 0.23771785714285715 -0.003085714285714286 0.32724642857142855v0.021610714285714285c0.01234642857142857 0.16362142857142858 0.021610714285714285 0.30872142857142854 -0.09261785714285714 0.6143571428571429 0.13275 -0.43838571428571427 0.11731428571428572 -0.8304642857142857 -0.006175 -0.6421428571428571 0.030871428571428567 0.33650714285714284 -0.114225 0.6297928571428572 -0.2469785714285714 0.8922071428571428l-0.003085714285714286 0.006175c-0.1111392857142857 0.21919285714285713 -0.20993214285714284 0.416775 -0.18214642857142857 0.5958321428571428l-0.16053571428571428 -0.21919285714285713c-0.23154285714285713 0.33650714285714284 -0.21610357142857142 0.41059999999999997 -0.20066785714285712 0.47852142857142854v0.003085714285714286c0.015435714285714284 0.05865714285714286 0.030871428571428567 0.11731428571428572 -0.10496785714285713 0.3334214285714286 0.05248214285714285 -0.08952857142857143 0.04013571428571428 -0.1111392857142857 0.030871428571428567 -0.1296642857142857 -0.01234642857142857 -0.02469642857142857 -0.021610714285714285 -0.04630714285714285 0.05248571428571428 -0.15744642857142857 -0.04939642857142857 0.003085714285714286 -0.1698 0.1204 -0.3118107142857143 0.2624107142857143 -0.1204 0.12040357142857143 -0.2624142857142857 0.2593285714285714 -0.3951642857142857 0.36429285714285714 -1.1577071428571426 0.9292535714285715 -2.540782142857143 1.0496571428571428 -3.87755 0.5495249999999999 0.006175 -0.030871428571428567 -0.006175 -0.06483214285714285 -0.09570357142857142 -0.126575 -1.1360999999999999 -0.8705964285714285 -1.806025 -1.608442857142857 -1.5713964285714284 -3.3187642857142854 0.06483214285714285 -0.04939642857142857 0.1111392857142857 -0.17905714285714286 0.16362142857142858 -0.3334178571428571l0.006175 -0.01235 0.003085714285714286 -0.009260714285714284v-0.0030892857142857137c0.08953214285714285 -0.25932499999999997 0.20067142857142856 -0.5803964285714286 0.44147499999999995 -0.7347571428571428 0.2408035714285714 -0.5340892857142857 0.9662999999999999 -1.0280464285714286 1.741192857142857 -1.0403964285714284 0.7903285714285714 -0.04321785714285714 1.457167857142857 0.42294999999999994 1.793675 0.8613357142857142 -0.6112678571428571 -0.5680464285714285 -1.608442857142857 -0.7409321428571427 -2.460514285714286 -0.32107142857142856 -0.8705964285714285 0.3920785714285714 -1.3892499999999999 1.3522035714285714 -1.3120714285714286 2.306157142857143 0.009264285714285714 -0.01235 0.018525 -0.018525 0.027785714285714285 -0.0247l0.0030892857142857137 -0.003085714285714286 0.003085714285714286 -0.0030892857142857137c0.018525 -0.015435714285714284 0.03396071428571428 -0.027782142857142856 0.04322142857142857 -0.101875 -0.027785714285714285 1.858507142857143 2.000517857142857 3.2199714285714283 3.460775 2.5315214285714283l0.018525 0.04013214285714285c0.39207499999999995 -0.10805357142857143 0.49086785714285713 -0.20066785714285712 0.6267035714285714 -0.33033214285714285l0.0030892857142857137 -0.003085714285714286c0.06791785714285714 -0.06483214285714285 0.1451 -0.138925 0.27476071428571425 -0.22536785714285712 -0.009260714285714284 0.021610714285714285 -0.04013214285714285 0.05248214285714285 -0.07409285714285714 0.08335357142857142 -0.06791785714285714 0.06483214285714285 -0.1420107142857143 0.138925 -0.04939642857142857 0.1420142857142857 0.1543642857142857 -0.04013571428571428 0.5711392857142856 -0.41368928571428565 0.8798607142857142 -0.6884535714285714 0.018521428571428567 -0.015435714285714284 0.03704642857142857 -0.030871428571428567 0.05248214285714285 -0.04630714285714285 0.04630714285714285 -0.04013214285714285 0.08644285714285714 -0.07717857142857143 0.1234892857142857 -0.1111392857142857l0.009260714285714284 -0.009260714285714284c0.05865714285714286 -0.1296642857142857 0.04939642857142857 -0.17288571428571428 0.04013571428571428 -0.21610714285714286v-0.003085714285714286c-0.01235 -0.04939642857142857 -0.0247 -0.10187857142857142 0.07409285714285714 -0.296375l0.22536785714285712 -0.114225c0.02469642857142857 -0.06483214285714285 0.04630714285714285 -0.12657857142857143 0.06791785714285714 -0.18523571428571428 0.006175 -0.018521428571428567 0.015435714285714284 -0.03704642857142857 0.021610714285714285 -0.05556785714285714l-0.01235 -0.006175ZM11.764871428571428 1.1046892857142856l-0.006175 -0.003085714285714286 0.006175 0.003085714285714286Zm-3.133528571428571 9.255492857142857c-0.18523571428571428 -0.09261785714285714 -0.42294999999999994 -0.2747642857142857 -0.4569107142857143 -0.3519428571428571l-0.01234642857142857 0.009260714285714284c-0.009264285714285714 0.018521428571428567 -0.015439285714285714 0.04013214285714285 -0.006175 0.06791785714285714 -0.3766428571428571 -0.17597142857142856 -0.7224107142857142 -0.44147142857142857 -1.006435714285714 -0.7687178571428571 0.15127499999999997 0.21919285714285713 0.3118107142857143 0.43529999999999996 0.5248285714285714 0.6020071428571429 -0.21301785714285715 -0.07100357142857143 -0.4661714285714285 -0.3642892857142857 -0.6668392857142857 -0.5958321428571428l-0.0030892857142857137 -0.0030892857142857137c-0.13275 -0.15436071428571427 -0.2438892857142857 -0.2809357142857143 -0.29946071428571425 -0.29328571428571426 0.6112714285714286 1.0959642857142857 2.4852142857142856 1.9233392857142855 3.4669535714285713 1.5127392857142854 -0.453825 0.015435714285714284 -1.0311321428571427 0.009260714285714284 -1.540525 -0.17905714285714286Zm2.4481642857142853 -3.695407142857143 -0.003085714285714286 -0.006171428571428572c-0.015435714285714284 -0.04631071428571428 -0.03396071428571428 -0.09570714285714285 -0.05248214285714285 -0.10496785714285713 0.04322142857142857 -0.17905714285714286 0.1667107142857143 -0.33033214285714285 0.13583571428571428 0.1420142857142857 -0.030871428571428567 0.11731428571428572 -0.05556785714285714 0.04630714285714285 -0.08026785714285714 -0.030875Zm-0.12966071428571427 0.6853642857142858c-0.04013571428571428 0.2438892857142857 -0.15436071428571427 0.4785178571428571 -0.3118107142857143 0.6946249999999999 0.006175 -0.061742857142857134 -0.03704642857142857 -0.07409285714285714 -0.08026785714285714 -0.08644285714285714 -0.08952857142857143 -0.02469642857142857 -0.18214642857142857 -0.04939642857142857 0.17288571428571428 -0.4970428571428571 -0.015435714285714284 0.05865714285714286 -0.06483214285714285 0.1420142857142857 -0.11422857142857142 0.22536785714285712l-0.009260714285714284 0.01235c-0.1111392857142857 0.18214642857142857 -0.20684285714285713 0.3395928571428571 0.1234892857142857 0.13275l0.030871428571428567 -0.05557142857142857c0.08026785714285714 -0.138925 0.15436071428571427 -0.271675 0.18523214285714285 -0.4260357142857143h0.0030892857142857137Zm-1.7164964285714286 1.046567857142857c0.21919285714285713 0.018525 0.43529999999999996 0.018525 0.6483178571428571 -0.03395714285714285 -0.07718214285714285 0.07409285714285714 -0.16053571428571428 0.14818571428571428 -0.25623928571428567 0.2222785714285714 -0.3426821428571429 -0.05248214285714285 -0.6544928571428571 -0.18523214285714285 -0.3920785714285714 -0.18832142857142856Zm-2.858767857142857 0.35811785714285715c0.1111392857142857 0.21919285714285713 0.19758214285714285 0.3550321428571428 0.27785 0.48469285714285715l0.0030892857142857137 0.006175c0.07100357142857143 0.11422857142857142 0.13583571428571428 0.21919285714285713 0.2099285714285714 0.36120714285714284 -0.15744642857142857 -0.1296642857142857 -0.26858571428571426 -0.29328571428571426 -0.38590357142857146 -0.46308571428571427l-0.009260714285714284 -0.015435714285714284c-0.04322142857142857 -0.06483214285714285 -0.08644285714285714 -0.12966071428571427 -0.13583571428571428 -0.19140714285714283l0.03704642857142857 -0.18214642857142857h0.003085714285714286Zm0.23154285714285713 -0.29637142857142856c0.04939642857142857 0.10187857142857142 0.0987892857142857 0.19758214285714285 0.17597142857142856 0.2809357142857143l0.08026785714285714 0.23771785714285715 -0.04013571428571428 -0.06483214285714285c-0.0987892857142857 -0.163625 -0.19449285714285713 -0.32724642857142855 -0.246975 -0.5155678571428571l0.02469642857142857 0.04939642857142857 0.006175 0.01235Zm7.3753714285714285 -1.2842857142857143c-0.07100357142857143 0.5371785714285714 -0.23771428571428568 1.0681785714285714 -0.49395357142857144 1.5528714285714287 0.23462857142857144 -0.45999642857142853 0.38590357142857146 -0.95395 0.45690714285714285 -1.457167857142857l0.03704642857142857 -0.09570357142857142ZM2.0802571428571426 3.4602392857142856c0.01235 0.0247 0.04322142857142857 0.015435714285714284 0.07100714285714285 0.009264285714285714 0.05865714285714286 -0.015439285714285714 0.1111392857142857 -0.027785714285714285 -0.0030892857142857137 0.23462857142857144 -0.015435714285714284 0.009260714285714284 -0.030871428571428567 0.021610714285714285 -0.04630714285714285 0.030871428571428567 -0.04322142857142857 0.027785714285714285 -0.08644285714285714 0.05865714285714286 -0.1204 0.09261785714285714 0.05865714285714286 -0.11731428571428572 0.10805 -0.22845714285714283 0.0987892857142857 -0.3673821428571428Zm-0.3179821428571428 1.2873714285714284c-0.021610714285714285 0.11422857142857142 -0.04631071428571428 0.24389285714285713 -0.10496785714285713 0.429125 0.006175 -0.05865714285714286 0 -0.10805357142857143 -0.006175 -0.15127499999999997v-0.003085714285714286c-0.01234642857142857 -0.10496785714285713 -0.021610714285714285 -0.19449642857142857 0.13275357142857142 -0.3951642857142857 -0.009264285714285714 0.03704642857142857 -0.015439285714285714 0.07717857142857143 -0.021610714285714285 0.11731428571428572v0.003085714285714286Z" fill="#000000" stroke-width="0.0357"></path>
</svg>